<?xml version="1.0" encoding="utf-8"?>
<!-- Generator: Adobe Illustrator 23.0.2, SVG Export Plug-In . SVG Version: 6.00 Build 0)  -->
<svg version="1.1" xmlns="http://www.w3.org/2000/svg" xmlns:xlink="http://www.w3.org/1999/xlink" x="0px" y="0px"
	 viewBox="0 0 512 512" style="enable-background:new 0 0 512 512;" xml:space="preserve">
<style type="text/css">
	.st0{fill:#5c2ece;stroke:#5c2ece;stroke-width:20;stroke-miterlimit:10;}
	.st1{fill:none;stroke:#5c2ece;stroke-width:20;stroke-miterlimit:10;}
	.st2{fill:#5c2ece;stroke:#2A2A2A;stroke-width:20;stroke-miterlimit:10;}
</style>
<g id="Layer_1">
</g>
<g id="Layer_2">
</g>
<g id="Layer_3">
	<path class="st0" d="M464,244.14v68.09c0,12.41-3.32,24.03-9.11,34.05c0,0-12.87,22.13-38.6,30.94c-4.72,1.62-9.8,2.33-14.69,3.33
		c-1.15,0.23-2.32,0.47-3.49,0.48c-1.59,0.01-3.09-0.38-4.1-1.66c-0.91-1.15-1.31-2.61-1.92-3.92c-0.97-2.07-2-4.12-3.19-6.07
		c-1.64-2.68-3.62-5.33-6.12-7.27c-1.89-1.47-3.85-2.86-5.89-4.11c-2.23-1.37-4.54-2.61-6.9-3.75c-15.62-7.55-32.65-9.17-49.78-8.62
		c-20.55,0.66-40.77,1.8-60.49-5.15c-29.02-10.26-52.02-33.26-62.28-62.28c-3.76-10.65-5.81-22.11-5.81-34.05
		c0-11.94,2.05-23.4,5.81-34.05c10.26-29.02,33.26-52.02,62.28-62.28c10.65-3.76,22.11-5.81,34.05-5.81h68.09
		c11.94,0,23.4,2.05,34.05,5.81c29.02,10.26,52.02,33.26,62.28,62.28C461.95,220.74,464,232.2,464,244.14z"/>
	<path class="st1" d="M90.09,306.8l55.97-37.32c15.96-10.64,15.96-34.1,0-44.74l-55.97-37.32c-17.87-11.91-41.8,0.9-41.8,22.37
		v74.63C48.3,305.9,72.23,318.71,90.09,306.8z"/>
	<path class="st2" d="M90.09,296.8l55.97-37.32c15.96-10.64,15.96-34.1,0-44.74l-55.97-37.32c-17.87-11.91-41.8,0.9-41.8,22.37
		v74.63C48.3,295.9,72.23,308.71,90.09,296.8z"/>
	<path class="st2" d="M464,227v34v34c0,6.19-0.83,12.19-2.38,17.9c-1.55,5.7-3.83,11.1-6.72,16.1
		c-5.88,10.16-14.31,18.66-24.42,24.62c-3.95,2.33-2.52,0.83-14.13,6.28c0,0-2.34,1.1-15.39,4.87c-0.49,0.14-1.67,0.47-3.03,0.1
		c-1.55-0.42-2.5-1.51-2.79-1.88c-0.7-0.87-0.54-1.37-1.41-3.49c-0.74-1.78-1.53-3.65-1.72-3.96c-0.76-1.29-1.61-2.53-2.52-3.72
		s-1.91-2.32-2.95-3.39c-2.37-2.45-5.02-4.63-7.84-6.55s-5.81-3.61-8.88-5.07c-7.85-3.76-16.08-6.03-24.49-7.28
		c-8.41-1.25-17-1.48-25.6-1.16c-10.15,0.38-20.22,0.8-30.18,0.27s-19.82-2.01-29.55-5.45c-14.49-5.12-27.48-13.43-38.13-24.07
		c-10.65-10.65-18.95-23.63-24.07-38.13c-1.88-5.32-3.33-10.84-4.31-16.52C192.51,238.8,192,232.96,192,227
		c0-5.96,0.51-11.8,1.49-17.48c0.98-5.68,2.43-11.2,4.31-16.52c5.12-14.49,13.43-27.48,24.07-38.13
		c10.65-10.65,23.63-18.95,38.13-24.07c5.32-1.88,10.84-3.33,16.52-4.31S288.04,125,294,125h34h34c5.96,0,11.8,0.51,17.48,1.49
		s11.2,2.43,16.52,4.31c14.49,5.12,27.48,13.43,38.13,24.07c10.65,10.65,18.95,23.63,24.07,38.13c1.88,5.32,3.33,10.84,4.31,16.52
		C463.49,215.2,464,221.04,464,227z"/>
</g>
<g id="Layer_4">
</g>
</svg>
